<?xml version="1.0" encoding="UTF-8" standalone="no"?>
<!DOCTYPE svg PUBLIC "-//W3C//DTD SVG 1.1//EN" "http://www.w3.org/Graphics/SVG/1.1/DTD/svg11.dtd">
<svg width="100%" height="100%" viewBox="0 0 1036 570" version="1.1" xmlns="http://www.w3.org/2000/svg" xmlns:xlink="http://www.w3.org/1999/xlink" xml:space="preserve" xmlns:serif="http://www.serif.com/" style="fill-rule:evenodd;clip-rule:evenodd;stroke-linejoin:round;stroke-miterlimit:2;">
    <g transform="matrix(1,0,0,1,-82,-165.014)">
        <path d="M269.237,245.897C269.237,245.897 269.237,245.897 269.237,245.897C261.717,245.897 255.53,239.709 255.53,232.19C255.53,224.671 261.717,218.483 269.237,218.483C276.756,218.483 282.943,224.671 282.943,232.19C282.935,239.706 276.753,245.888 269.237,245.897ZM269.237,220.768C262.97,220.768 257.814,225.924 257.814,232.19C257.814,238.456 262.97,243.612 269.237,243.612C275.503,243.612 280.659,238.456 280.659,232.19C280.652,225.926 275.5,220.775 269.237,220.768Z" style="fill:rgb(63,61,86);fill-rule:nonzero;"/>
    </g>
    <g transform="matrix(1,0,0,1,-82,-165.014)">
        <path d="M878.989,601.46L856.44,601.46L856.44,578.911L878.989,578.911L878.989,601.46ZM858.175,599.726L877.254,599.726L877.254,580.646L858.175,580.646L858.175,599.726Z" style="fill:rgb(63,61,86);fill-rule:nonzero;"/>
    </g>
    <g transform="matrix(1,0,0,1,-82,-165.014)">
        <path d="M341.735,580.992L326.355,564.502L342.845,549.122L358.225,565.612L341.735,580.992ZM328.807,564.588L341.821,578.54L355.773,565.526L342.759,551.574L328.807,564.588Z" style="fill:rgb(63,61,86);fill-rule:nonzero;"/>
    </g>
    <g transform="matrix(1,0,0,1,-82,-165.014)">
        <path d="M856.898,734.415C832.199,730.548 808.451,727.259 785.655,724.548L794.433,706.991C791.386,705.975 778.182,716.132 778.182,716.132L789.355,665.348C774.12,667.379 767.01,719.179 767.01,719.179L749.743,701.913L758.243,721.462C688.485,714.132 628.29,711.844 577.689,712.369L585.203,697.342C582.156,696.326 568.952,706.483 568.952,706.483L580.124,655.699C564.889,657.731 557.779,709.53 557.779,709.53L540.513,692.264L549.515,712.969C514.854,713.976 480.268,716.762 445.892,721.314C453.39,697.958 479.572,675.505 479.572,675.505C459.44,681.768 448.967,691.972 443.546,701.43C442.45,653.446 449.832,605.643 465.352,560.225C480.872,514.807 424.725,651.636 430.819,712.577L431.592,723.403C396.247,728.917 378.511,734.415 378.511,734.415L856.898,734.415Z" style="fill:rgb(63,61,86);fill-rule:nonzero;"/>
    </g>
    <circle cx="524.425" cy="287.859" r="158.77" style="fill:rgb(255,161,0);fill-opacity:0.3;"/>
    <path d="M459.223,85.873L353.51,214.137L509.965,398.782L614.268,276.156L459.223,85.873Z" style="fill:rgb(255,161,0);fill-rule:nonzero;"/>
    <path d="M459.223,85.873L353.51,214.137L509.965,398.782L614.268,276.156L459.223,85.873Z" style="fill-opacity:0.1;fill-rule:nonzero;"/>
    <g transform="matrix(1,0,0,1,-82,-165.014)">
        <path d="M439.739,380.561C442.077,376.352 444.977,372.481 448.358,369.053L545.451,270.62C545.451,270.62 579.279,264.982 586.327,281.896L462.291,383.38L439.739,380.561Z" style="fill:rgb(242,242,242);fill-rule:nonzero;"/>
    </g>
    <g transform="matrix(1,0,0,1,-82,-165.014)">
        <path d="M434.805,378.447L578.575,598.33C578.575,598.33 592.67,608.196 606.765,602.558L754.058,503.188L597.603,266.392L456.653,376.333L434.805,378.447Z" style="fill:rgb(255,161,0);fill-rule:nonzero;"/>
    </g>
    <g transform="matrix(0.81208,-0.583545,0.583545,0.81208,-176.285,210.298)">
        <rect x="480.039" y="332.905" width="111.092" height="2.284" style="fill:rgb(63,61,86);"/>
    </g>
    <g transform="matrix(0.834066,-0.551665,0.551665,0.834066,-256.018,216.307)">
        <rect x="545.719" y="372.621" width="2.284" height="214.62" style="fill:rgb(63,61,86);"/>
    </g>
    <g transform="matrix(0.805473,-0.592633,0.592633,0.805473,-271.965,335.923)">
        <rect x="608.595" y="538.693" width="118.967" height="2.285" style="fill:rgb(63,61,86);"/>
    </g>
    <g transform="matrix(0.820771,-0.571257,0.571257,0.820771,-188.398,280.946)">
        <rect x="656.366" y="285.212" width="2.284" height="214.661" style="fill:rgb(63,61,86);"/>
    </g>
    <g transform="matrix(0.736748,-0.676167,0.676167,0.736748,-166.329,260.232)">
        <rect x="428.269" y="320.219" width="151.386" height="1.409" style="fill:rgb(63,61,86);"/>
    </g>
    <g transform="matrix(0.749667,-0.661815,0.661815,0.749667,-167.307,253.621)">
        <rect x="432.981" y="321.377" width="155.492" height="1.41" style="fill:rgb(63,61,86);"/>
    </g>
    <g transform="matrix(0.768141,-0.64028,0.64028,0.768141,-169.302,240.151)">
        <rect x="437.017" y="322.42" width="157.533" height="1.41" style="fill:rgb(63,61,86);"/>
    </g>
</svg>
