<?xml version="1.0" encoding="UTF-8"?>
<!DOCTYPE svg PUBLIC "-//W3C//DTD SVG 1.1//EN" "http://www.w3.org/Graphics/SVG/1.1/DTD/svg11.dtd">
<svg version="1.2" width="80mm" height="80mm" viewBox="0 0 8000 8000" preserveAspectRatio="xMidYMid" fill-rule="evenodd" stroke-width="28.222" stroke-linejoin="round" xmlns="http://www.w3.org/2000/svg" xmlns:ooo="http://xml.openoffice.org/svg/export" xmlns:xlink="http://www.w3.org/1999/xlink" xmlns:presentation="http://sun.com/xmlns/staroffice/presentation" xmlns:smil="http://www.w3.org/2001/SMIL20/" xmlns:anim="urn:oasis:names:tc:opendocument:xmlns:animation:1.0" xml:space="preserve">
 <defs class="ClipPathGroup">
  <clipPath id="presentation_clip_path" clipPathUnits="userSpaceOnUse">
   <rect x="0" y="0" width="8000" height="8000"/>
  </clipPath>
 </defs>
 <defs class="TextShapeIndex">
  <g ooo:slide="id1" ooo:id-list="id3 id4"/>
 </defs>
 <defs class="EmbeddedBulletChars">
  <g id="bullet-char-template(57356)" transform="scale(0.00048828125,-0.00048828125)">
   <path d="M 580,1141 L 1163,571 580,0 -4,571 580,1141 Z"/>
  </g>
  <g id="bullet-char-template(57354)" transform="scale(0.00048828125,-0.00048828125)">
   <path d="M 8,1128 L 1137,1128 1137,0 8,0 8,1128 Z"/>
  </g>
  <g id="bullet-char-template(10146)" transform="scale(0.00048828125,-0.00048828125)">
   <path d="M 174,0 L 602,739 174,1481 1456,739 174,0 Z M 1358,739 L 309,1346 659,739 1358,739 Z"/>
  </g>
  <g id="bullet-char-template(10132)" transform="scale(0.00048828125,-0.00048828125)">
   <path d="M 2015,739 L 1276,0 717,0 1260,543 174,543 174,936 1260,936 717,1481 1274,1481 2015,739 Z"/>
  </g>
  <g id="bullet-char-template(10007)" transform="scale(0.00048828125,-0.00048828125)">
   <path d="M 0,-2 C -7,14 -16,27 -25,37 L 356,567 C 262,823 215,952 215,954 215,979 228,992 255,992 264,992 276,990 289,987 310,991 331,999 354,1012 L 381,999 492,748 772,1049 836,1024 860,1049 C 881,1039 901,1025 922,1006 886,937 835,863 770,784 769,783 710,716 594,584 L 774,223 C 774,196 753,168 711,139 L 727,119 C 717,90 699,76 672,76 641,76 570,178 457,381 L 164,-76 C 142,-110 111,-127 72,-127 30,-127 9,-110 8,-76 1,-67 -2,-52 -2,-32 -2,-23 -1,-13 0,-2 Z"/>
  </g>
  <g id="bullet-char-template(10004)" transform="scale(0.00048828125,-0.00048828125)">
   <path d="M 285,-33 C 182,-33 111,30 74,156 52,228 41,333 41,471 41,549 55,616 82,672 116,743 169,778 240,778 293,778 328,747 346,684 L 369,508 C 377,444 397,411 428,410 L 1163,1116 C 1174,1127 1196,1133 1229,1133 1271,1133 1292,1118 1292,1087 L 1292,965 C 1292,929 1282,901 1262,881 L 442,47 C 390,-6 338,-33 285,-33 Z"/>
  </g>
  <g id="bullet-char-template(9679)" transform="scale(0.00048828125,-0.00048828125)">
   <path d="M 813,0 C 632,0 489,54 383,161 276,268 223,411 223,592 223,773 276,916 383,1023 489,1130 632,1184 813,1184 992,1184 1136,1130 1245,1023 1353,916 1407,772 1407,592 1407,412 1353,268 1245,161 1136,54 992,0 813,0 Z"/>
  </g>
  <g id="bullet-char-template(8226)" transform="scale(0.00048828125,-0.00048828125)">
   <path d="M 346,457 C 273,457 209,483 155,535 101,586 74,649 74,723 74,796 101,859 155,911 209,963 273,989 346,989 419,989 480,963 531,910 582,859 608,796 608,723 608,648 583,586 532,535 482,483 420,457 346,457 Z"/>
  </g>
  <g id="bullet-char-template(8211)" transform="scale(0.00048828125,-0.00048828125)">
   <path d="M -4,459 L 1135,459 1135,606 -4,606 -4,459 Z"/>
  </g>
 </defs>
 <defs class="TextEmbeddedBitmaps"/>
 <g>
  <g id="id2" class="Master_Slide">
   <g id="bg-id2" class="Background"/>
   <g id="bo-id2" class="BackgroundObjects"/>
  </g>
 </g>
 <g class="SlideGroup">
  <g>
   <g id="id1" class="Slide" clip-path="url(#presentation_clip_path)">
    <g class="Page">
     <g class="Group">
      <g class="com.sun.star.drawing.ClosedBezierShape">
       <g id="id3">
        <rect class="BoundingBox" stroke="none" fill="none" x="1224" y="1411" width="5181" height="3543"/>
        <path fill="rgb(245,142,39)" stroke="none" d="M 3685,2037 C 3381,2325 3154,2634 2942,2923 2795,3102 1997,4408 1997,4755 1997,4850 2088,4953 2169,4953 2256,4953 2386,4847 2394,4731 2300,4708 2270,4731 2225,4731 2225,4772 2267,4766 2267,4764 2267,4563 3451,2845 3452,2876 3521,2842 3606,2737 3693,2639 3973,2328 4185,2137 4257,2137 4277,2137 4279,2137 4450,2407 4394,1944 4224,1794 4079,1794 3983,1794 3840,1895 3685,2037 Z M 6227,1861 C 6267,1878 6554,1834 6299,1716 6034,1580 5112,1411 4405,1411 2815,1411 1238,1895 1224,2671 1219,3018 1658,3118 1888,3118 1930,3118 1580,2887 1580,2726 1580,2390 2723,1684 4502,1684 5298,1684 6153,1834 6227,1861 Z"/>
       </g>
      </g>
      <g class="com.sun.star.drawing.ClosedBezierShape">
       <g id="id4">
        <rect class="BoundingBox" stroke="none" fill="none" x="1758" y="2767" width="5068" height="3735"/>
        <path fill="rgb(245,142,39)" stroke="none" d="M 3698,5280 C 3958,5719 4614,6501 5390,6501 5665,6501 5967,6397 6255,6155 6369,6070 6220,5995 6154,6041 5938,6187 5737,6244 5536,6244 4856,6244 4264,5552 3982,4969 4055,4890 4157,4785 4250,4688 5300,3603 6266,3079 6580,3139 6597,3117 6574,3117 6574,3118 6565,3178 6548,3223 6593,3282 6690,3276 6827,3134 6824,2983 6819,2906 6743,2767 6616,2767 6073,2767 5091,3418 4110,4479 4018,4577 3910,4694 3860,4818 3899,4801 3837,4790 3830,4793 4311,4257 4769,3668 4758,3307 4755,3132 4624,2965 4363,2965 3309,2965 1758,2864 1758,3645 1775,3867 1874,3868 1975,3920 2081,3935 2066,3921 2141,3918 2011,3840 2005,3707 2005,3704 1849,3236 3427,3170 4300,3186 4378,3189 4408,3203 4394,3264 4332,3520 4010,3952 3727,4415 3776,4405 3769,4374 3769,4346 3769,4312 3773,4305 3782,4299 4110,4091 3513,4171 3410,4382 3396,4419 3387,4493 3399,4568 3406,4624 3423,4691 3435,4732 3099,5194 2776,5697 2773,6042 2773,6189 2873,6309 2987,6309 3010,6309 3039,6305 3213,6261 2975,6114 3390,5638 3698,5280 Z M 3632,5103 L 3584,5077 C 3457,5221 3307,5400 3242,5602 3412,5460 3549,5269 3632,5103 Z"/>
       </g>
      </g>
     </g>
    </g>
   </g>
  </g>
 </g>
</svg>